<mxfile host="app.diagrams.net" agent="Mozilla/5.0 (Windows NT 10.0; Win64; x64) AppleWebKit/537.36 (KHTML, like Gecko) Chrome/130.0.0.0 Safari/537.36" version="26.2.13">
  <diagram name="Trang-1" id="gmWN1X9lIVVJ3vjvm-tr">
    <mxGraphModel dx="874" dy="476" grid="1" gridSize="10" guides="1" tooltips="1" connect="1" arrows="1" fold="1" page="1" pageScale="1" pageWidth="827" pageHeight="1169" math="0" shadow="0">
      <root>
        <mxCell id="0" />
        <mxCell id="1" parent="0" />
        <mxCell id="PVe0tMneRp51ZIAO890E-1" value="0 Hệ thống quản lý bán rau củ" style="ellipse;whiteSpace=wrap;html=1;aspect=fixed;fillColor=#dae8fc;strokeColor=#6c8ebf;" parent="1" vertex="1">
          <mxGeometry x="360" y="190" width="80" height="80" as="geometry" />
        </mxCell>
        <mxCell id="PVe0tMneRp51ZIAO890E-3" value="Khách hàng" style="rounded=0;whiteSpace=wrap;html=1;" parent="1" vertex="1">
          <mxGeometry x="80" y="10" width="120" height="60" as="geometry" />
        </mxCell>
        <mxCell id="PVe0tMneRp51ZIAO890E-4" value="Nhà cung cấp&amp;nbsp;" style="rounded=0;whiteSpace=wrap;html=1;" parent="1" vertex="1">
          <mxGeometry x="20" y="200" width="120" height="60" as="geometry" />
        </mxCell>
        <mxCell id="PVe0tMneRp51ZIAO890E-5" value="Quản lý" style="rounded=0;whiteSpace=wrap;html=1;" parent="1" vertex="1">
          <mxGeometry x="700" y="200" width="120" height="60" as="geometry" />
        </mxCell>
        <mxCell id="PVe0tMneRp51ZIAO890E-7" value="" style="endArrow=classic;html=1;rounded=0;exitX=1;exitY=0.5;exitDx=0;exitDy=0;entryX=0;entryY=0.5;entryDx=0;entryDy=0;" parent="1" source="PVe0tMneRp51ZIAO890E-4" target="PVe0tMneRp51ZIAO890E-1" edge="1">
          <mxGeometry width="50" height="50" relative="1" as="geometry">
            <mxPoint x="610" y="310" as="sourcePoint" />
            <mxPoint x="660" y="260" as="targetPoint" />
          </mxGeometry>
        </mxCell>
        <mxCell id="PVe0tMneRp51ZIAO890E-8" value="Thông tin đặt hàng&amp;nbsp;" style="text;html=1;align=center;verticalAlign=middle;whiteSpace=wrap;rounded=0;rotation=0;" parent="1" vertex="1">
          <mxGeometry x="280" y="10" width="120" height="30" as="geometry" />
        </mxCell>
        <mxCell id="PVe0tMneRp51ZIAO890E-12" value="" style="endArrow=none;html=1;rounded=0;exitX=1;exitY=0.5;exitDx=0;exitDy=0;" parent="1" source="PVe0tMneRp51ZIAO890E-3" edge="1">
          <mxGeometry width="50" height="50" relative="1" as="geometry">
            <mxPoint x="610" y="310" as="sourcePoint" />
            <mxPoint x="400" y="40" as="targetPoint" />
          </mxGeometry>
        </mxCell>
        <mxCell id="PVe0tMneRp51ZIAO890E-13" value="" style="endArrow=classic;html=1;rounded=0;" parent="1" target="PVe0tMneRp51ZIAO890E-1" edge="1">
          <mxGeometry width="50" height="50" relative="1" as="geometry">
            <mxPoint x="400" y="40" as="sourcePoint" />
            <mxPoint x="660" y="260" as="targetPoint" />
          </mxGeometry>
        </mxCell>
        <mxCell id="PVe0tMneRp51ZIAO890E-14" value="Thông tin thanh toán" style="text;html=1;align=center;verticalAlign=middle;whiteSpace=wrap;rounded=0;" parent="1" vertex="1">
          <mxGeometry x="280" y="40" width="120" height="30" as="geometry" />
        </mxCell>
        <mxCell id="PVe0tMneRp51ZIAO890E-18" value="" style="endArrow=none;html=1;rounded=0;exitX=0;exitY=0;exitDx=0;exitDy=0;" parent="1" source="PVe0tMneRp51ZIAO890E-1" edge="1">
          <mxGeometry width="50" height="50" relative="1" as="geometry">
            <mxPoint x="610" y="310" as="sourcePoint" />
            <mxPoint x="320" y="120" as="targetPoint" />
          </mxGeometry>
        </mxCell>
        <mxCell id="PVe0tMneRp51ZIAO890E-19" value="" style="endArrow=none;html=1;rounded=0;" parent="1" edge="1">
          <mxGeometry width="50" height="50" relative="1" as="geometry">
            <mxPoint x="320" y="120" as="sourcePoint" />
            <mxPoint x="140" y="120" as="targetPoint" />
          </mxGeometry>
        </mxCell>
        <mxCell id="PVe0tMneRp51ZIAO890E-20" value="" style="endArrow=classic;html=1;rounded=0;entryX=0.5;entryY=1;entryDx=0;entryDy=0;" parent="1" target="PVe0tMneRp51ZIAO890E-3" edge="1">
          <mxGeometry width="50" height="50" relative="1" as="geometry">
            <mxPoint x="140" y="120" as="sourcePoint" />
            <mxPoint x="660" y="260" as="targetPoint" />
          </mxGeometry>
        </mxCell>
        <mxCell id="PVe0tMneRp51ZIAO890E-21" value="Xác nhận đơn hàng" style="text;html=1;align=center;verticalAlign=middle;whiteSpace=wrap;rounded=0;" parent="1" vertex="1">
          <mxGeometry x="185" y="90" width="110" height="30" as="geometry" />
        </mxCell>
        <mxCell id="PVe0tMneRp51ZIAO890E-23" value="Hóa đơn" style="text;html=1;align=center;verticalAlign=middle;whiteSpace=wrap;rounded=0;" parent="1" vertex="1">
          <mxGeometry x="180" y="120" width="110" height="30" as="geometry" />
        </mxCell>
        <mxCell id="PVe0tMneRp51ZIAO890E-24" value="Thông tin nhập hàng" style="text;html=1;align=center;verticalAlign=middle;whiteSpace=wrap;rounded=0;" parent="1" vertex="1">
          <mxGeometry x="180" y="200" width="120" height="30" as="geometry" />
        </mxCell>
        <mxCell id="PVe0tMneRp51ZIAO890E-26" value="Xác nhận nhập hàng" style="text;html=1;align=center;verticalAlign=middle;whiteSpace=wrap;rounded=0;" parent="1" vertex="1">
          <mxGeometry x="180" y="260" width="120" height="30" as="geometry" />
        </mxCell>
        <mxCell id="PVe0tMneRp51ZIAO890E-27" value="" style="endArrow=classic;html=1;rounded=0;exitX=0;exitY=1;exitDx=0;exitDy=0;entryX=1;entryY=1;entryDx=0;entryDy=0;" parent="1" source="PVe0tMneRp51ZIAO890E-1" target="PVe0tMneRp51ZIAO890E-4" edge="1">
          <mxGeometry width="50" height="50" relative="1" as="geometry">
            <mxPoint x="610" y="310" as="sourcePoint" />
            <mxPoint x="150" y="280" as="targetPoint" />
          </mxGeometry>
        </mxCell>
        <mxCell id="PVe0tMneRp51ZIAO890E-28" value="" style="endArrow=classic;html=1;rounded=0;exitX=0;exitY=0.5;exitDx=0;exitDy=0;entryX=1;entryY=0.5;entryDx=0;entryDy=0;" parent="1" source="PVe0tMneRp51ZIAO890E-5" target="PVe0tMneRp51ZIAO890E-1" edge="1">
          <mxGeometry width="50" height="50" relative="1" as="geometry">
            <mxPoint x="610" y="310" as="sourcePoint" />
            <mxPoint x="660" y="260" as="targetPoint" />
          </mxGeometry>
        </mxCell>
        <mxCell id="PVe0tMneRp51ZIAO890E-29" value="Thông tin sản phẩm" style="text;html=1;align=center;verticalAlign=middle;whiteSpace=wrap;rounded=0;" parent="1" vertex="1">
          <mxGeometry x="545" y="200" width="110" height="30" as="geometry" />
        </mxCell>
        <mxCell id="PVe0tMneRp51ZIAO890E-30" value="Yêu cầu quản lý" style="text;html=1;align=center;verticalAlign=middle;whiteSpace=wrap;rounded=0;" parent="1" vertex="1">
          <mxGeometry x="555" y="230" width="90" height="30" as="geometry" />
        </mxCell>
        <mxCell id="PVe0tMneRp51ZIAO890E-33" value="" style="endArrow=none;html=1;rounded=0;exitX=0.708;exitY=0.976;exitDx=0;exitDy=0;exitPerimeter=0;" parent="1" source="PVe0tMneRp51ZIAO890E-1" edge="1">
          <mxGeometry width="50" height="50" relative="1" as="geometry">
            <mxPoint x="680" y="390" as="sourcePoint" />
            <mxPoint x="450" y="270" as="targetPoint" />
          </mxGeometry>
        </mxCell>
        <mxCell id="PVe0tMneRp51ZIAO890E-34" value="" style="endArrow=none;html=1;rounded=0;" parent="1" edge="1">
          <mxGeometry width="50" height="50" relative="1" as="geometry">
            <mxPoint x="450" y="270" as="sourcePoint" />
            <mxPoint x="450" y="360" as="targetPoint" />
          </mxGeometry>
        </mxCell>
        <mxCell id="PVe0tMneRp51ZIAO890E-35" value="" style="endArrow=none;html=1;rounded=0;" parent="1" edge="1">
          <mxGeometry width="50" height="50" relative="1" as="geometry">
            <mxPoint x="450" y="360" as="sourcePoint" />
            <mxPoint x="760" y="360" as="targetPoint" />
          </mxGeometry>
        </mxCell>
        <mxCell id="PVe0tMneRp51ZIAO890E-36" value="" style="endArrow=classic;html=1;rounded=0;entryX=0.488;entryY=1.056;entryDx=0;entryDy=0;entryPerimeter=0;" parent="1" target="PVe0tMneRp51ZIAO890E-5" edge="1">
          <mxGeometry width="50" height="50" relative="1" as="geometry">
            <mxPoint x="760" y="360" as="sourcePoint" />
            <mxPoint x="770" y="280" as="targetPoint" />
          </mxGeometry>
        </mxCell>
        <mxCell id="PVe0tMneRp51ZIAO890E-37" value="Kết quả quản lý" style="text;html=1;align=center;verticalAlign=middle;whiteSpace=wrap;rounded=0;" parent="1" vertex="1">
          <mxGeometry x="555" y="360" width="110" height="30" as="geometry" />
        </mxCell>
      </root>
    </mxGraphModel>
  </diagram>
</mxfile>
